# xmcd CD database file
#
# Track frame offsets:
#	150
#	26071
#	57675
#	78735
#	108616
#	138196
#	162600
#	194325
#	222600
#	246450
#	259771
#
# Disc length: 3754 seconds
#
# Revision: 0
# Processed by: cddbd v1.5.1PL0 Copyright (c) Steve Scherf et al.
# Submitted via: CDex 1.51
#
DISCID=b20ea80b
DTITLE=Jon Kabat-Zinn - Coming to our senses [CD1)
DYEAR=1900
DGENRE=New Age
TTITLE0=Coming to our senses 1 01
TTITLE1=Coming to our senses 1 02
TTITLE2=Coming to our senses 1 03
TTITLE3=Coming to our senses 1 04
TTITLE4=Coming to our senses 1 05
TTITLE5=Coming to our senses 1 06
TTITLE6=Coming to our senses 1 07
TTITLE7=Coming to our senses 1 08
TTITLE8=Coming to our senses 1 09
TTITLE9=Coming to our senses 1 10
TTITLE10=Coming to our senses 1 11
EXTD=
EXTT0=
EXTT1=
EXTT2=
EXTT3=
EXTT4=
EXTT5=
EXTT6=
EXTT7=
EXTT8=
EXTT9=
EXTT10=
PLAYORDER=
